<svg width="360" height="226" viewBox="0 0 360 226" fill="none" xmlns="http://www.w3.org/2000/svg">
<path fill-rule="evenodd" clip-rule="evenodd" d="M92 20.1986H238.089V127.935H92V20.1986ZM106.61 93.2504H150.441V78.64H106.61V93.2504Z" fill="#76808F"/>
<path d="M238.089 64.0297H92V42.1141H238.089V64.0297Z" fill="url(#paint0_linear_760_16236)"/>
<path opacity="0.3" d="M150.441 93.2504H106.61V78.64H150.441V93.2504Z" fill="#AEB4BC"/>
<path d="M191.065 168.351C217.716 168.351 239.321 146.746 239.321 120.095C239.321 93.4445 217.716 71.8397 191.065 71.8397C164.414 71.8397 142.81 93.4445 142.81 120.095C142.81 146.746 164.414 168.351 191.065 168.351Z" fill="#F8D33A"/>
<path d="M191.065 153.117C209.303 153.117 224.087 138.333 224.087 120.096C224.087 101.858 209.303 87.0737 191.065 87.0737C172.828 87.0737 158.043 101.858 158.043 120.096C158.043 138.333 172.828 153.117 191.065 153.117Z" fill="url(#paint1_linear_760_16236)"/>
<path d="M173.277 120.095L191.05 137.883L208.823 120.095L191.05 102.323L173.277 120.095Z" fill="white"/>
<path d="M298 117.363H244.83L271.407 90.8004L297.985 117.363H298Z" fill="#76808F"/>
<path d="M129.12 179.932C163.671 214.439 219.677 214.424 254.214 179.888C271.482 162.62 280.123 139.977 280.123 117.363H262.424C262.424 135.478 255.52 153.563 241.697 167.386C214.065 195.018 169.254 195.033 141.622 167.416L129.105 179.918L129.12 179.932Z" fill="#AEB4BC"/>
<rect width="19.7989" height="19.7989" transform="matrix(-0.707107 -0.707107 -0.707107 0.707107 55 94.9907)" fill="#CACED3"/>
<rect width="14.1421" height="14.1421" transform="matrix(-0.707107 -0.707107 -0.707107 0.707107 318 151.991)" fill="#CACED3"/>
<rect width="18.3847" height="18.3847" transform="matrix(-0.707107 -0.707107 -0.707107 0.707107 276 37.9907)" fill="#CACED3"/>
<defs>
<linearGradient id="paint0_linear_760_16236" x1="121" y1="55.4908" x2="185.5" y2="52.9908" gradientUnits="userSpaceOnUse">
<stop offset="0.131259" stop-color="#F0B90B"/>
<stop offset="1" stop-color="#F8D33A"/>
</linearGradient>
<linearGradient id="paint1_linear_760_16236" x1="191.065" y1="120.095" x2="191.065" y2="54.052" gradientUnits="userSpaceOnUse">
<stop stop-color="#F0B90B"/>
<stop offset="1" stop-color="#F8D33A"/>
</linearGradient>
</defs>
</svg>
